<mxfile host="Electron" modified="2023-04-25T13:15:24.068Z" agent="Mozilla/5.0 (Windows NT 10.0; Win64; x64) AppleWebKit/537.36 (KHTML, like Gecko) draw.io/21.2.1 Chrome/112.0.5615.87 Electron/24.1.2 Safari/537.36" etag="ZksOuRMnximg51dYu8xe" version="21.2.1" type="device">
  <diagram name="Page-1" id="CJDXFAS1TQc4XUZyx9KX">
    <mxGraphModel dx="1098" dy="820" grid="1" gridSize="10" guides="1" tooltips="1" connect="1" arrows="1" fold="1" page="1" pageScale="1" pageWidth="850" pageHeight="1100" math="0" shadow="0">
      <root>
        <mxCell id="0" />
        <mxCell id="1" parent="0" />
        <mxCell id="D4-CuBaSec3DNoOhtxjp-5" style="edgeStyle=orthogonalEdgeStyle;rounded=0;orthogonalLoop=1;jettySize=auto;html=1;exitX=1;exitY=0.5;exitDx=0;exitDy=0;entryX=0;entryY=0.5;entryDx=0;entryDy=0;" edge="1" parent="1" source="D4-CuBaSec3DNoOhtxjp-1" target="D4-CuBaSec3DNoOhtxjp-2">
          <mxGeometry relative="1" as="geometry" />
        </mxCell>
        <mxCell id="D4-CuBaSec3DNoOhtxjp-1" value="Solar panel" style="whiteSpace=wrap;html=1;aspect=fixed;" vertex="1" parent="1">
          <mxGeometry x="100" y="260" width="80" height="80" as="geometry" />
        </mxCell>
        <mxCell id="D4-CuBaSec3DNoOhtxjp-7" style="edgeStyle=orthogonalEdgeStyle;rounded=0;orthogonalLoop=1;jettySize=auto;html=1;exitX=0.25;exitY=1;exitDx=0;exitDy=0;entryX=0.25;entryY=0;entryDx=0;entryDy=0;strokeColor=#0000FF;" edge="1" parent="1" source="D4-CuBaSec3DNoOhtxjp-2" target="D4-CuBaSec3DNoOhtxjp-3">
          <mxGeometry relative="1" as="geometry" />
        </mxCell>
        <mxCell id="D4-CuBaSec3DNoOhtxjp-2" value="Power Controller/ Charger" style="whiteSpace=wrap;html=1;aspect=fixed;" vertex="1" parent="1">
          <mxGeometry x="240" y="260" width="80" height="80" as="geometry" />
        </mxCell>
        <mxCell id="D4-CuBaSec3DNoOhtxjp-3" value="Rechargeable battery&lt;br&gt;(i.e. Lead acid)" style="whiteSpace=wrap;html=1;aspect=fixed;" vertex="1" parent="1">
          <mxGeometry x="240" y="400" width="80" height="80" as="geometry" />
        </mxCell>
        <mxCell id="D4-CuBaSec3DNoOhtxjp-8" value="" style="endArrow=classic;html=1;rounded=0;entryX=0.75;entryY=1;entryDx=0;entryDy=0;exitX=0.75;exitY=0;exitDx=0;exitDy=0;strokeColor=#FF0000;" edge="1" parent="1" source="D4-CuBaSec3DNoOhtxjp-3" target="D4-CuBaSec3DNoOhtxjp-2">
          <mxGeometry width="50" height="50" relative="1" as="geometry">
            <mxPoint x="400" y="410" as="sourcePoint" />
            <mxPoint x="450" y="360" as="targetPoint" />
          </mxGeometry>
        </mxCell>
        <mxCell id="D4-CuBaSec3DNoOhtxjp-9" value="Charging" style="text;html=1;align=center;verticalAlign=middle;resizable=0;points=[];autosize=1;strokeColor=none;fillColor=none;" vertex="1" parent="1">
          <mxGeometry x="195" y="348" width="70" height="30" as="geometry" />
        </mxCell>
        <mxCell id="D4-CuBaSec3DNoOhtxjp-10" value="Power" style="text;html=1;align=center;verticalAlign=middle;resizable=0;points=[];autosize=1;strokeColor=none;fillColor=none;" vertex="1" parent="1">
          <mxGeometry x="290" y="355" width="60" height="30" as="geometry" />
        </mxCell>
        <mxCell id="D4-CuBaSec3DNoOhtxjp-11" value="Radio Transceiver" style="whiteSpace=wrap;html=1;aspect=fixed;" vertex="1" parent="1">
          <mxGeometry x="425" y="130" width="110" height="110" as="geometry" />
        </mxCell>
        <mxCell id="D4-CuBaSec3DNoOhtxjp-12" value="" style="edgeStyle=segmentEdgeStyle;endArrow=classic;html=1;curved=0;rounded=0;endSize=8;startSize=8;entryX=0;entryY=0.582;entryDx=0;entryDy=0;entryPerimeter=0;exitX=0.5;exitY=0;exitDx=0;exitDy=0;strokeColor=#FF0000;" edge="1" parent="1" source="D4-CuBaSec3DNoOhtxjp-2" target="D4-CuBaSec3DNoOhtxjp-11">
          <mxGeometry width="50" height="50" relative="1" as="geometry">
            <mxPoint x="280" y="240" as="sourcePoint" />
            <mxPoint x="450" y="360" as="targetPoint" />
            <Array as="points">
              <mxPoint x="280" y="194" />
            </Array>
          </mxGeometry>
        </mxCell>
        <mxCell id="D4-CuBaSec3DNoOhtxjp-13" value="Power" style="text;html=1;align=center;verticalAlign=middle;resizable=0;points=[];autosize=1;strokeColor=none;fillColor=none;" vertex="1" parent="1">
          <mxGeometry x="320" y="160" width="60" height="30" as="geometry" />
        </mxCell>
        <mxCell id="D4-CuBaSec3DNoOhtxjp-14" value="Micro computer" style="whiteSpace=wrap;html=1;aspect=fixed;" vertex="1" parent="1">
          <mxGeometry x="432.5" y="252.5" width="95" height="95" as="geometry" />
        </mxCell>
        <mxCell id="D4-CuBaSec3DNoOhtxjp-15" value="" style="endArrow=classic;html=1;rounded=0;exitX=1;exitY=0.5;exitDx=0;exitDy=0;entryX=0;entryY=0.5;entryDx=0;entryDy=0;strokeColor=#FF0000;" edge="1" parent="1" source="D4-CuBaSec3DNoOhtxjp-2" target="D4-CuBaSec3DNoOhtxjp-14">
          <mxGeometry width="50" height="50" relative="1" as="geometry">
            <mxPoint x="400" y="410" as="sourcePoint" />
            <mxPoint x="450" y="360" as="targetPoint" />
          </mxGeometry>
        </mxCell>
        <mxCell id="D4-CuBaSec3DNoOhtxjp-16" value="Power" style="text;html=1;align=center;verticalAlign=middle;resizable=0;points=[];autosize=1;strokeColor=none;fillColor=none;" vertex="1" parent="1">
          <mxGeometry x="340" y="270" width="60" height="30" as="geometry" />
        </mxCell>
        <mxCell id="D4-CuBaSec3DNoOhtxjp-17" value="Sensors" style="whiteSpace=wrap;html=1;aspect=fixed;" vertex="1" parent="1">
          <mxGeometry x="432.5" y="385" width="95" height="95" as="geometry" />
        </mxCell>
        <mxCell id="D4-CuBaSec3DNoOhtxjp-18" value="" style="edgeStyle=elbowEdgeStyle;elbow=horizontal;endArrow=classic;html=1;curved=0;rounded=0;endSize=8;startSize=8;exitX=1;exitY=0.75;exitDx=0;exitDy=0;strokeColor=#FF0000;" edge="1" parent="1" source="D4-CuBaSec3DNoOhtxjp-2" target="D4-CuBaSec3DNoOhtxjp-17">
          <mxGeometry width="50" height="50" relative="1" as="geometry">
            <mxPoint x="400" y="410" as="sourcePoint" />
            <mxPoint x="450" y="360" as="targetPoint" />
          </mxGeometry>
        </mxCell>
        <mxCell id="D4-CuBaSec3DNoOhtxjp-19" value="Power" style="text;html=1;align=center;verticalAlign=middle;resizable=0;points=[];autosize=1;strokeColor=none;fillColor=none;" vertex="1" parent="1">
          <mxGeometry x="365" y="430" width="60" height="30" as="geometry" />
        </mxCell>
      </root>
    </mxGraphModel>
  </diagram>
</mxfile>
